<svg xmlns="http://www.w3.org/2000/svg" viewBox="0 0 600 180"><defs><style>.cls-1{isolation:isolate;}.cls-2{fill:#fd7f2c;}.cls-3{fill:#fff;}.cls-4,.cls-5{fill:none;stroke:#000;stroke-miterlimit:10;}.cls-4{stroke-width:7.82px;}.cls-5{stroke-width:4px;}</style></defs><title>logo</title><g id="logo-2" data-name="logo"><rect class="cls-2" x="235.88" y="139" width="326.11" height="39"/><g id="schilderwerken"><path class="cls-3" d="M259.62,167a6.84,6.84,0,0,1-2.9,2.54,10.43,10.43,0,0,1-4.64,1,11.09,11.09,0,0,1-6.77-2,7.06,7.06,0,0,1-2.9-5.49h6.28a3.22,3.22,0,0,0,1,2.14,3,3,0,0,0,2.15.78,2.54,2.54,0,0,0,1.8-.62,2.08,2.08,0,0,0,.66-1.62,2.11,2.11,0,0,0-.61-1.53,4.8,4.8,0,0,0-1.5-1q-.9-.39-2.49-.93a30.44,30.44,0,0,1-3.78-1.51,6.85,6.85,0,0,1-2.52-2.17,7,7,0,0,1,.05-7.44,7.08,7.08,0,0,1,3.06-2.39,11.38,11.38,0,0,1,4.47-.83,10.14,10.14,0,0,1,6.48,1.9,7.19,7.19,0,0,1,2.71,5.22h-6.39a3.22,3.22,0,0,0-.88-1.88,2.59,2.59,0,0,0-1.92-.7,2.44,2.44,0,0,0-1.67.55,2,2,0,0,0-.64,1.59,2,2,0,0,0,.57,1.44,4.4,4.4,0,0,0,1.43,1c.58.24,1.4.56,2.49.95a27.71,27.71,0,0,1,3.83,1.54,7.39,7.39,0,0,1,2.56,2.22,6.26,6.26,0,0,1,1.07,3.79A6.53,6.53,0,0,1,259.62,167Z"/><path class="cls-3" d="M283.92,148.07a11.71,11.71,0,0,1,4.21,6.93h-6.66a6,6,0,0,0-2.25-2.78,6.46,6.46,0,0,0-3.63-1,5.53,5.53,0,0,0-4.44,2,9.1,9.1,0,0,0,0,10.59,5.56,5.56,0,0,0,4.44,2,6.39,6.39,0,0,0,3.63-1,6,6,0,0,0,2.25-2.74h6.66a11.75,11.75,0,0,1-4.21,6.91,12.82,12.82,0,0,1-8.22,2.58,13.19,13.19,0,0,1-6.65-1.64,11.28,11.28,0,0,1-4.43-4.6,15.38,15.38,0,0,1,0-13.5,11.28,11.28,0,0,1,4.43-4.6,13.19,13.19,0,0,1,6.65-1.64A12.93,12.93,0,0,1,283.92,148.07Z"/><path class="cls-3" d="M312.91,146v25h-6V161h-10v10h-6V146h6v10h10V146Z"/><path class="cls-3" d="M322.91,146v25h-6V146Z"/><path class="cls-3" d="M332.91,166h8v5h-14V146h6Z"/><path class="cls-3" d="M365.23,165a11.16,11.16,0,0,1-4.61,4.44,15,15,0,0,1-7.08,1.59h-9.62V146h9.62a15.14,15.14,0,0,1,7.09,1.56,10.87,10.87,0,0,1,4.6,4.38,14.06,14.06,0,0,1,0,13Zm-7-1.81a7.77,7.77,0,0,0,0-10.32,7.71,7.71,0,0,0-5.49-1.84h-2.86v14h2.86A7.71,7.71,0,0,0,358.27,163.16Z"/><path class="cls-3" d="M376.93,151v5h8v5h-9v5h10v5h-16V146h16v5Z"/><path class="cls-3" d="M401.53,171l-5.26-9h-1.34v9h-6V146h10.25a11.07,11.07,0,0,1,5,1,7.15,7.15,0,0,1,3.05,2.82,8.08,8.08,0,0,1,1,4.08,7.25,7.25,0,0,1-1.5,4.63,7.58,7.58,0,0,1-4.33,2.62l5.9,9.83Zm-6.6-14h3.62a3.72,3.72,0,0,0,2.57-.75,3.4,3.4,0,0,0,0-4.45,3.59,3.59,0,0,0-2.55-.8h-3.62Z"/><path class="cls-3" d="M446.25,146l-6.09,25h-7.64l-4.07-16.73L424.34,171H416.7l-6.08-25h6.7l3.28,18.1,4.46-18.1h6.74l4.47,18.1,3.31-18.1Z"/><path class="cls-3" d="M456,151v5h8v5h-9v5h10v5H449V146h16v5Z"/><path class="cls-3" d="M480.55,171l-5.25-9H474v9h-6V146h10.25a11.05,11.05,0,0,1,5,1,7.12,7.12,0,0,1,3.06,2.82,8.17,8.17,0,0,1,1,4.08,7.24,7.24,0,0,1-1.49,4.63,7.62,7.62,0,0,1-4.33,2.62l5.89,9.83ZM474,157h3.62a3.69,3.69,0,0,0,2.56-.75A2.89,2.89,0,0,0,481,154a2.94,2.94,0,0,0-.84-2.22,3.55,3.55,0,0,0-2.54-.8H474Z"/><path class="cls-3" d="M502.65,158.23l10,12.77h-7.27L497,159.79V171h-6V146h6v11l8.49-11h7.2Z"/><path class="cls-3" d="M522,151v5h8v5h-9v5h10v5H515V146h16v5Z"/><path class="cls-3" d="M557,171h-7l-10-15.35V171h-6V146h7l10,15.49V146h6Z"/></g><g id="VEST"><path d="M229.46,4l27.39,93.31L284.23,4h29L274.26,128h-35L200.5,4Z"/><path d="M351.92,28V52h39V76h-39v28h43v24h-70V4h70V28Z"/><path d="M490.7,109.83a32.88,32.88,0,0,1-13.45,12.71q-8.89,4.75-21.54,4.75-19.06,0-31.39-9.83T410.86,90H440q.64,6.78,4.57,10.68a13.59,13.59,0,0,0,10,3.9,11.26,11.26,0,0,0,8.33-3,11.06,11.06,0,0,0,3-8.14,10.9,10.9,0,0,0-2.8-7.63,22.14,22.14,0,0,0-7-5Q452,78.82,444.66,76.1a137.16,137.16,0,0,1-17.54-7.54,32.88,32.88,0,0,1-11.69-10.85q-4.89-7.2-4.89-18.73a32.85,32.85,0,0,1,5.13-18.47,33,33,0,0,1,14.17-12,49.2,49.2,0,0,1,20.74-4.15q18.9,0,30,9.49T493.18,40H463.56a16.57,16.57,0,0,0-4.09-9.41,11.67,11.67,0,0,0-8.89-3.47,11,11,0,0,0-7.76,2.71q-3,2.72-3,8A10.42,10.42,0,0,0,442.5,45a20,20,0,0,0,6.64,4.83q4,1.86,11.53,4.75a123.35,123.35,0,0,1,17.78,7.71,34.67,34.67,0,0,1,11.85,11.1q5,7.29,5,19A34.54,34.54,0,0,1,490.7,109.83Z"/><path d="M595,4V28H564V128H537V28H506V4Z"/></g><path id="D" d="M99.84,146h-30v31h32.23q27.9,0,48.18-11a75,75,0,0,0,31-30.67q10.71-19.68,10.7-45.55,0-26.08-10.7-45.66a73.39,73.39,0,0,0-31-30.28q-16.8-8.94-39-10.43a2.3,2.3,0,0,0-2.44,2.27V32a2.23,2.23,0,0,0,2,2.2c12.91,1.69,23.35,6.31,31.18,14Q157.16,63,157.18,89.82q0,26.61-15.2,41.36T99.57,146"/><g id="verfroller"><rect x="55.82" y="154" width="4" height="12" rx="1.9" ry="1.9"/><path d="M66.83,118v48.77a9.51,9.51,0,1,1-19,0V118h-7v56.45A2.55,2.55,0,0,0,43.37,177h28.9a2.56,2.56,0,0,0,2.56-2.56V118Z"/><path d="M72.6,106H43.06a2.24,2.24,0,0,0-2.24,2.24V116h34v-7.77A2.23,2.23,0,0,0,72.6,106Z"/><path class="cls-4" d="M58.82,111V56.74S57.85,49,51.06,49h-34s-8.3-1.06-8.18-7.83S9,24.5,9,24.5s.57-5.14,7-6.47l6.7-.14"/><rect x="24.81" y="8" width="3" height="20" rx="0.56" ry="0.56"/><rect class="cls-5" x="31.81" y="4" width="86.03" height="27" rx="2.8" ry="2.8"/><g id="verf"><rect class="cls-2" x="29.81" y="2" width="87.03" height="25" rx="2.71" ry="2.71"/><rect class="cls-2" x="94.84" y="18" width="8" height="39" rx="3.8" ry="3.8"/><rect class="cls-2" x="83.83" y="6" width="8" height="39" rx="3.8" ry="3.8"/><rect class="cls-2" x="71.83" y="23" width="8" height="15" rx="3.59" ry="3.59"/><rect class="cls-2" x="106.84" y="21" width="8" height="19" rx="3.64" ry="3.64"/></g></g></g></svg>