<svg xmlns="http://www.w3.org/2000/svg" viewBox="0 0 64 64" fill="currentColor" role="img" aria-label="JASM Flowers">
  <g transform="translate(32 32)">
    <path d="M 0 -5.6 C -3.352 -11.339 -2.69 -19.264 10.5 -30 C 11.51 -19.264 5.452 -11.339 0 -5.6 Z" transform="rotate(-8)"/>
    <path d="M 0 -5.6 C -3.352 -11.339 -2.69 -19.264 10.5 -30 C 11.51 -19.264 5.452 -11.339 0 -5.6 Z" transform="rotate(52)"/>
    <path d="M 0 -5.6 C -3.352 -11.339 -2.69 -19.264 10.5 -30 C 11.51 -19.264 5.452 -11.339 0 -5.6 Z" transform="rotate(112)"/>
    <path d="M 0 -5.6 C -3.352 -11.339 -2.69 -19.264 10.5 -30 C 11.51 -19.264 5.452 -11.339 0 -5.6 Z" transform="rotate(172)"/>
    <path d="M 0 -5.6 C -3.352 -11.339 -2.69 -19.264 10.5 -30 C 11.51 -19.264 5.452 -11.339 0 -5.6 Z" transform="rotate(232)"/>
    <path d="M 0 -5.6 C -3.352 -11.339 -2.69 -19.264 10.5 -30 C 11.51 -19.264 5.452 -11.339 0 -5.6 Z" transform="rotate(292)"/>
  </g>
  <circle cx="32" cy="32" r="2.7"/>
</svg>
